<svg id="Layer_1" data-name="Layer 1" xmlns="http://www.w3.org/2000/svg" viewBox="0 0 474.16 430.77"><defs><style>.cls-1{fill:#fff;}.cls-2{fill:#2f7cf0;}.cls-3{fill:#2c5e99;}</style></defs><rect class="cls-1" width="474.16" height="430.77" rx="119.15"/><path class="cls-2" d="M691.7,335.8V664.2H395.8a109,109,0,0,1-11.42-.59,113.16,113.16,0,0,1-13.62-2.28,109.93,109.93,0,0,1-81.87-81.89c-.7-3-1.26-6.06-1.71-9a111.34,111.34,0,0,1-1.15-16V490.33h96.59v57.22a20.09,20.09,0,0,0,20.06,20.06H595.11V432.39H401.93V335.8Z" transform="translate(-262.92 -284.62)"/><path class="cls-3" d="M575.32,478.69v43a42.87,42.87,0,0,1-1.1,9.64h-.08v.21a43.31,43.31,0,0,1-12.4,20.81,47.2,47.2,0,0,1-22.23,11.51,53.06,53.06,0,0,1-5.84,1c-1.55.14-3.17.21-4.8.21H450.08c-1.62,0-3.25-.07-4.87-.21a54.6,54.6,0,0,1-5.76-.89,47.57,47.57,0,0,1-22.23-11.58,43.24,43.24,0,0,1-12.4-20.81c-.3-1.17-.52-2.41-.74-3.58a44.07,44.07,0,0,1-.45-6.27v-43a44.32,44.32,0,0,1,.45-6.34c.22-1.24.44-2.48.74-3.58A42.71,42.71,0,0,1,417.22,448a47.57,47.57,0,0,1,22.23-11.58,5.27,5.27,0,0,0,.52-.14,49.77,49.77,0,0,1,10.11-1h78.79a48.34,48.34,0,0,1,10.56,1.17A47.21,47.21,0,0,1,561.74,448a42.79,42.79,0,0,1,12.4,20.74A40.68,40.68,0,0,1,575.32,478.69Zm-49.4-5.24H453c-4.65,0-8.49,3.59-8.49,7.93v37.55c0,4.41,3.84,7.93,8.49,7.93h73a8.18,8.18,0,0,0,8.49-7.93V481.38A8.22,8.22,0,0,0,525.92,473.45Z" transform="translate(-262.92 -284.62)"/></svg>